STARTFONT 2.1
COMMENT $XConsortium: lutRS18.bdf,v 1.9 94/04/02 16:11:30 gildea Exp $
COMMENT  (c) Copyright Bigelow & Holmes 1986, 1985. Lucida is a registered
COMMENT  trademark of Bigelow & Holmes. See LEGAL NOTICE file for terms 
COMMENT  of the license. 
COMMENT GRID 0018 0018 0200 0200
FONT -RFX-SereneTypewriter-Medium-R-Normal-Sans-18-180-75-75-M-110-windows-1251
SIZE 18 72 72
FONTBOUNDINGBOX 11 19 0 -3
STARTPROPERTIES 24
FONTNAME_REGISTRY ""
FOUNDRY "RFX"
FAMILY_NAME "SereneTypewriter"
WEIGHT_NAME "Medium"
SLANT "R"
SETWIDTH_NAME "Normal"
ADD_STYLE_NAME "Sans"
PIXEL_SIZE 18
POINT_SIZE 180
RESOLUTION_X 75
RESOLUTION_Y 75
SPACING "M"
AVERAGE_WIDTH 110
CHARSET_REGISTRY "windows"
CHARSET_ENCODING "1251"
FONT_ASCENT 16
FONT_DESCENT 3
DEFAULT_CHAR 0
COPYRIGHT "Copyright Bigelow & Holmes 1986, 1985."
FACE_NAME "Lucida Sans Typewriter"
COPYRIGHT2 "Cyrillic, Euro and line drawing glyphs copyright 2000 Dmitry Yu. Bolkhovityanov, bolkhov@inp.nsk.su"
SOURCEDATE "Fri Jun  9 17:47:25 2000"
PKGVERSION "1.1"
ASSEMBLER "cvtbdf.pl (Linux)"
ENDPROPERTIES
CHARS 256
STARTCHAR null
ENCODING 0
SWIDTH 602 0
DWIDTH 11 0
BBX 7 13 2 0
BITMAP
FE
FE
FE
FE
FE
FE
FE
FE
FE
FE
FE
FE
FE
ENDCHAR
STARTCHAR ldcornsqlr
ENCODING 11
SWIDTH 602 0
DWIDTH 11 0
BBX 7 11 0 5
BITMAP
06
06
06
06
06
06
06
06
06
06
FE
ENDCHAR
STARTCHAR ldcornsqur
ENCODING 12
SWIDTH 602 0
DWIDTH 11 0
BBX 7 9 0 -3
BITMAP
FE
06
06
06
06
06
06
06
06
ENDCHAR
STARTCHAR ldcornsqul
ENCODING 13
SWIDTH 602 0
DWIDTH 11 0
BBX 6 9 5 -3
BITMAP
FC
C0
C0
C0
C0
C0
C0
C0
C0
ENDCHAR
STARTCHAR ldcornsqll
ENCODING 14
SWIDTH 602 0
DWIDTH 11 0
BBX 6 11 5 5
BITMAP
C0
C0
C0
C0
C0
C0
C0
C0
C0
C0
FC
ENDCHAR
STARTCHAR ldcross
ENCODING 15
SWIDTH 602 0
DWIDTH 11 0
BBX 11 19 0 -3
BITMAP
0600
0600
0600
0600
0600
0600
0600
0600
0600
0600
FFE0
0600
0600
0600
0600
0600
0600
0600
0600
ENDCHAR
STARTCHAR ldhorizontal
ENCODING 18
SWIDTH 602 0
DWIDTH 11 0
BBX 11 1 0 5
BITMAP
FFE0
ENDCHAR
STARTCHAR ldteelft
ENCODING 21
SWIDTH 602 0
DWIDTH 11 0
BBX 6 19 5 -3
BITMAP
C0
C0
C0
C0
C0
C0
C0
C0
C0
C0
FC
C0
C0
C0
C0
C0
C0
C0
C0
ENDCHAR
STARTCHAR ldteert
ENCODING 22
SWIDTH 602 0
DWIDTH 11 0
BBX 7 19 0 -3
BITMAP
06
06
06
06
06
06
06
06
06
06
FE
06
06
06
06
06
06
06
06
ENDCHAR
STARTCHAR ldteebt
ENCODING 23
SWIDTH 602 0
DWIDTH 11 0
BBX 11 11 0 5
BITMAP
0600
0600
0600
0600
0600
0600
0600
0600
0600
0600
FFE0
ENDCHAR
STARTCHAR ldteetp
ENCODING 24
SWIDTH 602 0
DWIDTH 11 0
BBX 11 9 0 -3
BITMAP
FFE0
0600
0600
0600
0600
0600
0600
0600
0600
ENDCHAR
STARTCHAR ldvertical
ENCODING 25
SWIDTH 602 0
DWIDTH 11 0
BBX 2 19 5 -3
BITMAP
C0
C0
C0
C0
C0
C0
C0
C0
C0
C0
C0
C0
C0
C0
C0
C0
C0
C0
C0
ENDCHAR
STARTCHAR space
ENCODING 32
SWIDTH 602 0
DWIDTH 11 0
BBX 0 0 0 0
BITMAP
ENDCHAR
STARTCHAR exclam
ENCODING 33
SWIDTH 602 0
DWIDTH 11 0
BBX 2 13 5 0
BITMAP
C0
C0
C0
C0
C0
C0
C0
C0
40
00
00
C0
C0
ENDCHAR
STARTCHAR quotedbl
ENCODING 34
SWIDTH 602 0
DWIDTH 11 0
BBX 6 4 3 10
BITMAP
CC
CC
CC
88
ENDCHAR
STARTCHAR numbersign
ENCODING 35
SWIDTH 602 0
DWIDTH 11 0
BBX 11 13 0 0
BITMAP
0CC0
0CC0
0CC0
0880
7FE0
1100
3300
3300
FFC0
2200
6600
6600
6600
ENDCHAR
STARTCHAR dollar
ENCODING 36
SWIDTH 602 0
DWIDTH 11 0
BBX 8 15 2 -1
BITMAP
08
3E
4B
C8
C8
E8
78
3C
1E
17
13
13
D2
7C
10
ENDCHAR
STARTCHAR percent
ENCODING 37
SWIDTH 602 0
DWIDTH 11 0
BBX 11 13 0 0
BITMAP
7000
D840
8840
8880
8900
DA00
75C0
0B60
1220
2220
4220
4360
01C0
ENDCHAR
STARTCHAR ampersand
ENCODING 38
SWIDTH 602 0
DWIDTH 11 0
BBX 11 13 0 0
BITMAP
3C00
6600
6600
6600
3400
3800
6CC0
CCC0
C680
C300
C380
6EC0
3860
ENDCHAR
STARTCHAR quotesingle
ENCODING 39
SWIDTH 602 0
DWIDTH 11 0
BBX 2 4 4 10
BITMAP
C0
C0
C0
80
ENDCHAR
STARTCHAR parenleft
ENCODING 40
SWIDTH 602 0
DWIDTH 11 0
BBX 7 16 3 -2
BITMAP
06
18
30
60
60
C0
C0
C0
C0
C0
C0
60
60
30
18
06
ENDCHAR
STARTCHAR parenright
ENCODING 41
SWIDTH 602 0
DWIDTH 11 0
BBX 7 16 1 -2
BITMAP
C0
30
18
0C
0C
06
06
06
06
06
06
0C
0C
18
30
C0
ENDCHAR
STARTCHAR asterisk
ENCODING 42
SWIDTH 602 0
DWIDTH 11 0
BBX 7 7 2 7
BITMAP
10
10
92
EE
10
6C
44
ENDCHAR
STARTCHAR plus
ENCODING 43
SWIDTH 602 0
DWIDTH 11 0
BBX 9 9 1 1
BITMAP
0800
0800
0800
0800
FF80
0800
0800
0800
0800
ENDCHAR
STARTCHAR comma
ENCODING 44
SWIDTH 602 0
DWIDTH 11 0
BBX 3 5 4 -2
BITMAP
E0
E0
E0
60
C0
ENDCHAR
STARTCHAR minus
ENCODING 45
SWIDTH 602 0
DWIDTH 11 0
BBX 9 1 1 5
BITMAP
FF80
ENDCHAR
STARTCHAR period
ENCODING 46
SWIDTH 602 0
DWIDTH 11 0
BBX 3 3 4 0
BITMAP
E0
E0
E0
ENDCHAR
STARTCHAR slash
ENCODING 47
SWIDTH 602 0
DWIDTH 11 0
BBX 9 16 1 -2
BITMAP
0080
0180
0100
0300
0200
0600
0400
0C00
1800
1000
3000
2000
6000
4000
C000
8000
ENDCHAR
STARTCHAR zero
ENCODING 48
SWIDTH 602 0
DWIDTH 11 0
BBX 9 13 1 0
BITMAP
3E00
6300
4100
C180
C180
C180
C180
C180
C180
C180
4100
6300
3E00
ENDCHAR
STARTCHAR one
ENCODING 49
SWIDTH 602 0
DWIDTH 11 0
BBX 5 13 2 0
BITMAP
18
F8
18
18
18
18
18
18
18
18
18
18
18
ENDCHAR
STARTCHAR two
ENCODING 50
SWIDTH 602 0
DWIDTH 11 0
BBX 8 13 1 0
BITMAP
7E
C7
03
03
03
06
0C
18
30
60
C0
FF
FF
ENDCHAR
STARTCHAR three
ENCODING 51
SWIDTH 602 0
DWIDTH 11 0
BBX 8 13 1 0
BITMAP
7E
C7
03
03
06
3C
06
03
03
03
03
C7
7E
ENDCHAR
STARTCHAR four
ENCODING 52
SWIDTH 602 0
DWIDTH 11 0
BBX 10 13 1 0
BITMAP
0300
0700
0F00
1B00
1300
3300
6300
C300
FFC0
FFC0
0300
0300
0300
ENDCHAR
STARTCHAR five
ENCODING 53
SWIDTH 602 0
DWIDTH 11 0
BBX 8 13 2 0
BITMAP
FF
FF
80
80
80
F8
1E
07
03
03
03
C7
7E
ENDCHAR
STARTCHAR six
ENCODING 54
SWIDTH 602 0
DWIDTH 11 0
BBX 9 13 1 0
BITMAP
1E00
7300
6000
C000
C000
DE00
E300
C180
C180
C180
E180
7300
3E00
ENDCHAR
STARTCHAR seven
ENCODING 55
SWIDTH 602 0
DWIDTH 11 0
BBX 9 13 1 0
BITMAP
FF80
FF80
0300
0600
0C00
0C00
1800
1800
3000
3000
6000
6000
6000
ENDCHAR
STARTCHAR eight
ENCODING 56
SWIDTH 602 0
DWIDTH 11 0
BBX 9 13 1 0
BITMAP
3E00
6300
C180
C180
E100
7A00
3E00
6700
C380
C180
C180
6300
3E00
ENDCHAR
STARTCHAR nine
ENCODING 57
SWIDTH 602 0
DWIDTH 11 0
BBX 9 13 1 0
BITMAP
3E00
6700
C380
C180
C180
C180
6380
3D80
0180
0100
0300
C600
7C00
ENDCHAR
STARTCHAR colon
ENCODING 58
SWIDTH 602 0
DWIDTH 11 0
BBX 3 10 4 0
BITMAP
E0
E0
00
00
00
00
00
00
E0
E0
ENDCHAR
STARTCHAR semicolon
ENCODING 59
SWIDTH 602 0
DWIDTH 11 0
BBX 3 12 4 -2
BITMAP
E0
E0
00
00
00
00
00
00
E0
E0
60
C0
ENDCHAR
STARTCHAR less
ENCODING 60
SWIDTH 602 0
DWIDTH 11 0
BBX 10 9 0 1
BITMAP
00C0
0380
0E00
3800
E000
3800
0E00
0380
00C0
ENDCHAR
STARTCHAR equal
ENCODING 61
SWIDTH 602 0
DWIDTH 11 0
BBX 9 4 1 3
BITMAP
FF80
0000
0000
FF80
ENDCHAR
STARTCHAR greater
ENCODING 62
SWIDTH 602 0
DWIDTH 11 0
BBX 10 9 1 1
BITMAP
C000
7000
1C00
0700
01C0
0700
1C00
7000
C000
ENDCHAR
STARTCHAR question
ENCODING 63
SWIDTH 602 0
DWIDTH 11 0
BBX 8 13 1 0
BITMAP
7E
C7
03
03
06
18
30
30
30
00
00
30
30
ENDCHAR
STARTCHAR at
ENCODING 64
SWIDTH 602 0
DWIDTH 11 0
BBX 10 13 1 0
BITMAP
0F00
3180
6180
4F80
9980
9980
9980
9980
9F80
4DC0
6000
3000
0F80
ENDCHAR
STARTCHAR A
ENCODING 65
SWIDTH 602 0
DWIDTH 11 0
BBX 10 13 1 0
BITMAP
0C00
0C00
1E00
1600
1300
3300
2300
2180
7F80
4180
C0C0
C0C0
C0C0
ENDCHAR
STARTCHAR B
ENCODING 66
SWIDTH 602 0
DWIDTH 11 0
BBX 8 13 2 0
BITMAP
FE
C7
C3
C3
C3
C6
FC
C6
C3
C3
C3
C7
FE
ENDCHAR
STARTCHAR C
ENCODING 67
SWIDTH 602 0
DWIDTH 11 0
BBX 9 13 1 0
BITMAP
1F00
3180
6000
6000
C000
C000
C000
C000
C000
6000
6000
3180
1F00
ENDCHAR
STARTCHAR D
ENCODING 68
SWIDTH 602 0
DWIDTH 11 0
BBX 9 13 1 0
BITMAP
FC00
C700
C300
C180
C180
C180
C180
C180
C180
C300
C300
CE00
F800
ENDCHAR
STARTCHAR E
ENCODING 69
SWIDTH 602 0
DWIDTH 11 0
BBX 8 13 2 0
BITMAP
FF
C0
C0
C0
C0
C0
FE
C0
C0
C0
C0
C0
FF
ENDCHAR
STARTCHAR F
ENCODING 70
SWIDTH 602 0
DWIDTH 11 0
BBX 8 13 2 0
BITMAP
FF
C0
C0
C0
C0
C0
FE
C0
C0
C0
C0
C0
C0
ENDCHAR
STARTCHAR G
ENCODING 71
SWIDTH 602 0
DWIDTH 11 0
BBX 9 13 1 0
BITMAP
1F00
3180
6000
6000
C000
C000
C000
C180
C180
6180
6180
3180
1F80
ENDCHAR
STARTCHAR H
ENCODING 72
SWIDTH 602 0
DWIDTH 11 0
BBX 9 13 1 0
BITMAP
C180
C180
C180
C180
C180
C180
FF80
C180
C180
C180
C180
C180
C180
ENDCHAR
STARTCHAR I
ENCODING 73
SWIDTH 602 0
DWIDTH 11 0
BBX 8 13 2 0
BITMAP
FF
18
18
18
18
18
18
18
18
18
18
18
FF
ENDCHAR
STARTCHAR J
ENCODING 74
SWIDTH 602 0
DWIDTH 11 0
BBX 7 13 2 0
BITMAP
7E
06
06
06
06
06
06
06
06
06
86
8C
F0
ENDCHAR
STARTCHAR K
ENCODING 75
SWIDTH 602 0
DWIDTH 11 0
BBX 10 13 1 0
BITMAP
C180
C300
C600
CC00
D800
F000
F000
D800
CC00
C600
C300
C180
C0C0
ENDCHAR
STARTCHAR L
ENCODING 76
SWIDTH 602 0
DWIDTH 11 0
BBX 8 13 2 0
BITMAP
C0
C0
C0
C0
C0
C0
C0
C0
C0
C0
C0
C0
FF
ENDCHAR
STARTCHAR M
ENCODING 77
SWIDTH 602 0
DWIDTH 11 0
BBX 10 13 1 0
BITMAP
E0C0
E1C0
E1C0
E1C0
B2C0
B2C0
B2C0
B2C0
9CC0
9CC0
88C0
88C0
80C0
ENDCHAR
STARTCHAR N
ENCODING 78
SWIDTH 602 0
DWIDTH 11 0
BBX 9 13 1 0
BITMAP
C080
E080
E080
B080
9880
9880
8C80
8680
8680
8380
8380
8180
8080
ENDCHAR
STARTCHAR O
ENCODING 79
SWIDTH 602 0
DWIDTH 11 0
BBX 10 13 1 0
BITMAP
1E00
3300
6180
6180
C0C0
C0C0
C0C0
C0C0
C0C0
6180
6180
3300
1E00
ENDCHAR
STARTCHAR P
ENCODING 80
SWIDTH 602 0
DWIDTH 11 0
BBX 8 13 2 0
BITMAP
FE
C7
C3
C3
C3
C3
C6
F8
C0
C0
C0
C0
C0
ENDCHAR
STARTCHAR Q
ENCODING 81
SWIDTH 602 0
DWIDTH 11 0
BBX 10 16 1 -3
BITMAP
1E00
3300
6180
6180
C0C0
C0C0
C0C0
C0C0
C0C0
6180
6180
3300
1E00
0600
0380
01C0
ENDCHAR
STARTCHAR R
ENCODING 82
SWIDTH 602 0
DWIDTH 11 0
BBX 8 13 2 0
BITMAP
FC
CE
C6
C6
C6
CC
F0
D8
CC
CC
C6
C3
C3
ENDCHAR
STARTCHAR S
ENCODING 83
SWIDTH 602 0
DWIDTH 11 0
BBX 8 13 2 0
BITMAP
3E
63
C0
C0
E0
78
1E
07
03
03
03
C6
7C
ENDCHAR
STARTCHAR T
ENCODING 84
SWIDTH 602 0
DWIDTH 11 0
BBX 10 13 1 0
BITMAP
FFC0
0C00
0C00
0C00
0C00
0C00
0C00
0C00
0C00
0C00
0C00
0C00
0C00
ENDCHAR
STARTCHAR U
ENCODING 85
SWIDTH 602 0
DWIDTH 11 0
BBX 9 13 1 0
BITMAP
C180
C180
C180
C180
C180
C180
C180
C180
C180
C180
6300
7700
1C00
ENDCHAR
STARTCHAR V
ENCODING 86
SWIDTH 602 0
DWIDTH 11 0
BBX 10 13 1 0
BITMAP
C0C0
C0C0
C0C0
6080
6080
6180
3100
3100
3100
1A00
1A00
0C00
0C00
ENDCHAR
STARTCHAR W
ENCODING 87
SWIDTH 602 0
DWIDTH 11 0
BBX 11 13 0 0
BITMAP
C020
C020
C620
C660
6640
6740
6F40
6B40
7BC0
3B80
3180
3180
3180
ENDCHAR
STARTCHAR X
ENCODING 88
SWIDTH 602 0
DWIDTH 11 0
BBX 9 13 1 0
BITMAP
C180
C180
6180
6300
3200
1C00
1C00
1C00
2600
6300
C300
C180
C180
ENDCHAR
STARTCHAR Y
ENCODING 89
SWIDTH 602 0
DWIDTH 11 0
BBX 10 13 1 0
BITMAP
C0C0
C0C0
6180
3100
3300
1A00
0C00
0C00
0C00
0C00
0C00
0C00
0C00
ENDCHAR
STARTCHAR Z
ENCODING 90
SWIDTH 602 0
DWIDTH 11 0
BBX 9 13 1 0
BITMAP
FF80
FF80
0180
0300
0600
0C00
1800
3000
6000
C000
C000
FF80
FF80
ENDCHAR
STARTCHAR bracketleft
ENCODING 91
SWIDTH 602 0
DWIDTH 11 0
BBX 6 16 3 -2
BITMAP
FC
C0
C0
C0
C0
C0
C0
C0
C0
C0
C0
C0
C0
C0
C0
FC
ENDCHAR
STARTCHAR backslash
ENCODING 92
SWIDTH 602 0
DWIDTH 11 0
BBX 9 16 1 -2
BITMAP
8000
C000
4000
6000
2000
3000
1000
1800
0C00
0400
0600
0200
0300
0100
0180
0080
ENDCHAR
STARTCHAR bracketright
ENCODING 93
SWIDTH 602 0
DWIDTH 11 0
BBX 6 16 2 -2
BITMAP
FC
0C
0C
0C
0C
0C
0C
0C
0C
0C
0C
0C
0C
0C
0C
FC
ENDCHAR
STARTCHAR asciicircum
ENCODING 94
SWIDTH 602 0
DWIDTH 11 0
BBX 9 10 1 2
BITMAP
0800
1C00
1400
3600
2200
6300
6300
C180
C180
C180
ENDCHAR
STARTCHAR underscore
ENCODING 95
SWIDTH 602 0
DWIDTH 11 0
BBX 11 1 0 -1
BITMAP
FFE0
ENDCHAR
STARTCHAR grave
ENCODING 96
SWIDTH 602 0
DWIDTH 11 0
BBX 4 2 3 11
BITMAP
E0
30
ENDCHAR
STARTCHAR a
ENCODING 97
SWIDTH 602 0
DWIDTH 11 0
BBX 9 10 1 0
BITMAP
3E00
6700
0300
0300
3F00
6300
C300
C300
E700
7980
ENDCHAR
STARTCHAR b
ENCODING 98
SWIDTH 602 0
DWIDTH 11 0
BBX 9 14 1 0
BITMAP
C000
C000
C000
C000
DC00
E700
C300
C180
C180
C180
C180
C300
E700
DC00
ENDCHAR
STARTCHAR c
ENCODING 99
SWIDTH 602 0
DWIDTH 11 0
BBX 9 10 1 0
BITMAP
1F00
7180
6000
C000
C000
C000
C000
6000
7180
1F00
ENDCHAR
STARTCHAR d
ENCODING 100
SWIDTH 602 0
DWIDTH 11 0
BBX 9 14 1 0
BITMAP
0180
0180
0180
0180
1D80
7380
6180
C180
C180
C180
C180
6180
7380
1D80
ENDCHAR
STARTCHAR e
ENCODING 101
SWIDTH 602 0
DWIDTH 11 0
BBX 9 10 1 0
BITMAP
3E00
6300
C180
C180
FF80
C000
C000
E000
7180
3F00
ENDCHAR
STARTCHAR f
ENCODING 102
SWIDTH 602 0
DWIDTH 11 0
BBX 9 14 1 0
BITMAP
0780
0C00
1800
1800
1800
FF80
1800
1800
1800
1800
1800
1800
1800
1800
ENDCHAR
STARTCHAR g
ENCODING 103
SWIDTH 602 0
DWIDTH 11 0
BBX 9 13 1 -3
BITMAP
1D80
7380
6180
C180
C180
C180
C180
6380
3D80
0180
0180
6300
3E00
ENDCHAR
STARTCHAR h
ENCODING 104
SWIDTH 602 0
DWIDTH 11 0
BBX 8 14 2 0
BITMAP
C0
C0
C0
C0
DE
E7
C3
C3
C3
C3
C3
C3
C3
C3
ENDCHAR
STARTCHAR i
ENCODING 105
SWIDTH 602 0
DWIDTH 11 0
BBX 5 14 2 0
BITMAP
18
18
00
00
F8
18
18
18
18
18
18
18
18
18
ENDCHAR
STARTCHAR j
ENCODING 106
SWIDTH 602 0
DWIDTH 11 0
BBX 7 17 1 -3
BITMAP
06
06
00
00
3E
06
06
06
06
06
06
06
06
06
06
0C
F8
ENDCHAR
STARTCHAR k
ENCODING 107
SWIDTH 602 0
DWIDTH 11 0
BBX 9 14 2 0
BITMAP
C000
C000
C000
C000
C300
C600
CC00
D800
F000
D800
CC00
C600
C300
C180
ENDCHAR
STARTCHAR l
ENCODING 108
SWIDTH 602 0
DWIDTH 11 0
BBX 5 14 2 0
BITMAP
F8
18
18
18
18
18
18
18
18
18
18
18
18
18
ENDCHAR
STARTCHAR m
ENCODING 109
SWIDTH 602 0
DWIDTH 11 0
BBX 10 10 1 0
BITMAP
DD80
EEC0
CCC0
CCC0
CCC0
CCC0
CCC0
CCC0
CCC0
CCC0
ENDCHAR
STARTCHAR n
ENCODING 110
SWIDTH 602 0
DWIDTH 11 0
BBX 8 10 2 0
BITMAP
DE
E7
C3
C3
C3
C3
C3
C3
C3
C3
ENDCHAR
STARTCHAR o
ENCODING 111
SWIDTH 602 0
DWIDTH 11 0
BBX 9 10 1 0
BITMAP
1C00
7700
6300
C180
C180
C180
C180
6300
7700
1C00
ENDCHAR
STARTCHAR p
ENCODING 112
SWIDTH 602 0
DWIDTH 11 0
BBX 9 13 1 -3
BITMAP
DC00
E700
C300
C180
C180
C180
C180
C300
E700
DC00
C000
C000
C000
ENDCHAR
STARTCHAR q
ENCODING 113
SWIDTH 602 0
DWIDTH 11 0
BBX 9 13 1 -3
BITMAP
1D80
7380
6180
C180
C180
C180
C180
6180
7380
1D80
0180
0180
0180
ENDCHAR
STARTCHAR r
ENCODING 114
SWIDTH 602 0
DWIDTH 11 0
BBX 7 10 3 0
BITMAP
CE
DE
E2
C2
C0
C0
C0
C0
C0
C0
ENDCHAR
STARTCHAR s
ENCODING 115
SWIDTH 602 0
DWIDTH 11 0
BBX 7 10 2 0
BITMAP
7C
C6
C0
E0
78
3C
0E
06
C6
7C
ENDCHAR
STARTCHAR t
ENCODING 116
SWIDTH 602 0
DWIDTH 11 0
BBX 9 12 1 0
BITMAP
1800
1800
1800
FF80
1800
1800
1800
1800
1800
1800
1800
0F80
ENDCHAR
STARTCHAR u
ENCODING 117
SWIDTH 602 0
DWIDTH 11 0
BBX 8 10 1 0
BITMAP
C3
C3
C3
C3
C3
C3
C3
C3
E7
7B
ENDCHAR
STARTCHAR v
ENCODING 118
SWIDTH 602 0
DWIDTH 11 0
BBX 8 10 2 0
BITMAP
C3
C3
C3
62
66
66
34
34
18
18
ENDCHAR
STARTCHAR w
ENCODING 119
SWIDTH 602 0
DWIDTH 11 0
BBX 10 10 1 0
BITMAP
C0C0
CCC0
CCC0
CC80
6E80
6E80
7780
3700
3300
3300
ENDCHAR
STARTCHAR x
ENCODING 120
SWIDTH 602 0
DWIDTH 11 0
BBX 8 10 2 0
BITMAP
C3
C3
66
34
38
1C
2C
66
C3
C3
ENDCHAR
STARTCHAR y
ENCODING 121
SWIDTH 602 0
DWIDTH 11 0
BBX 8 13 2 -3
BITMAP
C3
C3
C3
62
66
66
34
3C
18
18
10
30
30
ENDCHAR
STARTCHAR z
ENCODING 122
SWIDTH 602 0
DWIDTH 11 0
BBX 8 10 2 0
BITMAP
FF
03
07
0E
1C
38
70
E0
C0
FF
ENDCHAR
STARTCHAR braceleft
ENCODING 123
SWIDTH 602 0
DWIDTH 11 0
BBX 8 16 2 -2
BITMAP
1F
30
30
10
18
08
08
F0
08
08
18
10
30
30
30
1F
ENDCHAR
STARTCHAR bar
ENCODING 124
SWIDTH 602 0
DWIDTH 11 0
BBX 2 16 5 -2
BITMAP
C0
C0
C0
C0
C0
C0
C0
C0
C0
C0
C0
C0
C0
C0
C0
C0
ENDCHAR
STARTCHAR braceright
ENCODING 125
SWIDTH 602 0
DWIDTH 11 0
BBX 8 16 1 -2
BITMAP
F8
0C
0C
08
18
10
10
0F
10
10
18
08
0C
0C
0C
F8
ENDCHAR
STARTCHAR asciitilde
ENCODING 126
SWIDTH 602 0
DWIDTH 11 0
BBX 9 3 1 4
BITMAP
7080
9C80
8700
ENDCHAR
STARTCHAR afii10051
ENCODING 128
SWIDTH 602 0
DWIDTH 11 0
BBX 10 13 0 0
BITMAP
FF00
6000
6000
6000
6F80
71C0
60C0
60C0
60C0
60C0
60C0
61C0
6780
ENDCHAR
STARTCHAR afii10052
ENCODING 129
SWIDTH 602 0
DWIDTH 11 0
BBX 8 16 2 0
BITMAP
1C
30
00
FF
C0
C0
C0
C0
C0
C0
C0
C0
C0
C0
C0
C0
ENDCHAR
STARTCHAR quotesinglbase
ENCODING 130
SWIDTH 602 0
DWIDTH 11 0
BBX 3 5 4 -2
BITMAP
E0
E0
E0
60
C0
ENDCHAR
STARTCHAR afii10100
ENCODING 131
SWIDTH 602 0
DWIDTH 11 0
BBX 7 13 3 0
BITMAP
38
60
00
FE
C0
C0
C0
C0
C0
C0
C0
C0
C0
ENDCHAR
STARTCHAR quotedblbase
ENCODING 132
SWIDTH 602 0
DWIDTH 11 0
BBX 8 4 1 -2
BITMAP
E7
E7
63
C6
ENDCHAR
STARTCHAR ellipsis
ENCODING 133
SWIDTH 602 0
DWIDTH 11 0
BBX 8 2 1 0
BITMAP
C3
C3
ENDCHAR
STARTCHAR dagger
ENCODING 134
SWIDTH 602 0
DWIDTH 11 0
BBX 8 15 2 -2
BITMAP
18
18
18
18
FF
18
18
18
18
18
18
18
18
18
18
ENDCHAR
STARTCHAR daggerdbl
ENCODING 135
SWIDTH 602 0
DWIDTH 11 0
BBX 8 15 2 -2
BITMAP
18
18
18
18
FF
18
18
18
18
18
FF
18
18
18
18
ENDCHAR
STARTCHAR Euro
ENCODING 136
SWIDTH 602 0
DWIDTH 11 0
BBX 10 13 0 0
BITMAP
0F80
18C0
3000
3000
6000
FF00
6000
FE00
6000
3000
3000
18C0
0F80
ENDCHAR
STARTCHAR perthousand
ENCODING 137
SWIDTH 602 0
DWIDTH 11 0
BBX 11 13 0 0
BITMAP
6000
9000
9000
9200
9400
9800
76C0
2920
4920
8920
0920
0920
06C0
ENDCHAR
STARTCHAR afii10058
ENCODING 138
SWIDTH 602 0
DWIDTH 11 0
BBX 11 13 0 0
BITMAP
7E00
6600
6600
6600
6600
6780
66C0
6660
6660
6660
6660
6660
C7C0
ENDCHAR
STARTCHAR guilsinglleft
ENCODING 139
SWIDTH 602 0
DWIDTH 11 0
BBX 7 8 2 1
BITMAP
06
1C
30
C0
C0
30
1C
06
ENDCHAR
STARTCHAR afii10059
ENCODING 140
SWIDTH 602 0
DWIDTH 11 0
BBX 10 13 1 0
BITMAP
CC00
CC00
CC00
CC00
CC00
FF00
CD80
CCC0
CCC0
CCC0
CCC0
CCC0
CF80
ENDCHAR
STARTCHAR afii10061
ENCODING 141
SWIDTH 602 0
DWIDTH 11 0
BBX 10 16 1 0
BITMAP
0E00
1800
0000
C180
C300
C600
CC00
D800
F000
F000
D800
CC00
C600
C300
C180
C0C0
ENDCHAR
STARTCHAR afii10060
ENCODING 142
SWIDTH 602 0
DWIDTH 11 0
BBX 10 13 0 0
BITMAP
FF00
6000
6000
6000
6F80
71C0
60C0
60C0
60C0
60C0
60C0
60C0
60C0
ENDCHAR
STARTCHAR afii10145
ENCODING 143
SWIDTH 602 0
DWIDTH 11 0
BBX 9 16 1 -3
BITMAP
C180
C180
C180
C180
C180
C180
C180
C180
C180
C180
C180
C180
FF80
0C00
0C00
0C00
ENDCHAR
STARTCHAR afii10099
ENCODING 144
SWIDTH 602 0
DWIDTH 11 0
BBX 9 17 1 -3
BITMAP
6000
6000
FC00
6000
6F00
7380
6180
6180
6180
6180
6180
6180
6180
6180
0180
0300
0E00
ENDCHAR
STARTCHAR quoteleft
ENCODING 145
SWIDTH 602 0
DWIDTH 11 0
BBX 3 5 4 9
BITMAP
60
C0
E0
E0
E0
ENDCHAR
STARTCHAR quoteright
ENCODING 146
SWIDTH 602 0
DWIDTH 11 0
BBX 3 5 4 9
BITMAP
E0
E0
E0
60
C0
ENDCHAR
STARTCHAR quotedblleft
ENCODING 147
SWIDTH 602 0
DWIDTH 11 0
BBX 8 4 2 10
BITMAP
63
C6
E7
E7
ENDCHAR
STARTCHAR quotedblright
ENCODING 148
SWIDTH 602 0
DWIDTH 11 0
BBX 8 4 1 10
BITMAP
E7
E7
63
C6
ENDCHAR
STARTCHAR bullet
ENCODING 149
SWIDTH 602 0
DWIDTH 11 0
BBX 5 5 3 3
BITMAP
70
F8
F8
F8
70
ENDCHAR
STARTCHAR endash
ENCODING 150
SWIDTH 602 0
DWIDTH 11 0
BBX 7 1 2 5
BITMAP
FE
ENDCHAR
STARTCHAR emdash
ENCODING 151
SWIDTH 602 0
DWIDTH 11 0
BBX 9 1 1 5
BITMAP
FF80
ENDCHAR
STARTCHAR trademark
ENCODING 153
SWIDTH 602 0
DWIDTH 11 0
BBX 11 6 0 7
BITMAP
FE60
2660
25A0
25A0
25A0
2420
ENDCHAR
STARTCHAR afii10106
ENCODING 154
SWIDTH 602 0
DWIDTH 11 0
BBX 11 10 0 0
BITMAP
7E00
6600
6600
6600
6780
66C0
6660
6660
66E0
C7C0
ENDCHAR
STARTCHAR guilsinglright
ENCODING 155
SWIDTH 602 0
DWIDTH 11 0
BBX 7 8 2 1
BITMAP
C0
70
18
06
06
18
70
C0
ENDCHAR
STARTCHAR afii10107
ENCODING 156
SWIDTH 602 0
DWIDTH 11 0
BBX 10 10 1 0
BITMAP
CC00
CC00
CC00
CC00
FF00
CD80
CCC0
CCC0
CDC0
CF80
ENDCHAR
STARTCHAR afii10109
ENCODING 157
SWIDTH 602 0
DWIDTH 11 0
BBX 8 13 2 0
BITMAP
1C
30
00
C3
C6
CC
D8
F0
F0
D8
CC
C6
C3
ENDCHAR
STARTCHAR afii10108
ENCODING 158
SWIDTH 602 0
DWIDTH 11 0
BBX 9 14 1 0
BITMAP
6000
6000
FC00
6000
6F00
7380
6180
6180
6180
6180
6180
6180
6180
6180
ENDCHAR
STARTCHAR afii10193
ENCODING 159
SWIDTH 602 0
DWIDTH 11 0
BBX 8 12 2 -2
BITMAP
C3
C3
C3
C3
C3
C3
C3
C3
C3
FF
18
18
ENDCHAR
STARTCHAR space
ENCODING 160
SWIDTH 602 0
DWIDTH 11 0
BBX 0 0 0 0
BITMAP
ENDCHAR
STARTCHAR afii10062
ENCODING 161
SWIDTH 602 0
DWIDTH 11 0
BBX 10 16 1 0
BITMAP
3300
1E00
0000
C0C0
C0C0
6080
6180
3100
3300
1A00
1E00
0C00
0C00
1800
3000
6000
ENDCHAR
STARTCHAR afii10110
ENCODING 162
SWIDTH 602 0
DWIDTH 11 0
BBX 8 16 2 -3
BITMAP
66
3C
00
C3
C3
C3
62
66
66
34
3C
18
18
10
30
30
ENDCHAR
STARTCHAR afii10057
ENCODING 163
SWIDTH 602 0
DWIDTH 11 0
BBX 7 13 2 0
BITMAP
7E
06
06
06
06
06
06
06
06
06
86
8C
F0
ENDCHAR
STARTCHAR currency
ENCODING 164
SWIDTH 602 0
DWIDTH 11 0
BBX 11 11 0 1
BITMAP
8020
4E40
3B80
3180
60C0
60C0
60C0
3180
3B80
4E40
8020
ENDCHAR
STARTCHAR afii10050
ENCODING 165
SWIDTH 602 0
DWIDTH 11 0
BBX 8 15 2 0
BITMAP
03
03
FF
C0
C0
C0
C0
C0
C0
C0
C0
C0
C0
C0
C0
ENDCHAR
STARTCHAR brokenbar
ENCODING 166
SWIDTH 602 0
DWIDTH 11 0
BBX 2 16 5 -2
BITMAP
C0
C0
C0
C0
C0
C0
C0
00
00
C0
C0
C0
C0
C0
C0
C0
ENDCHAR
STARTCHAR section
ENCODING 167
SWIDTH 602 0
DWIDTH 11 0
BBX 8 15 2 -2
BITMAP
7E
E3
C0
E0
78
5E
C7
C3
E3
7A
1E
07
03
C7
7E
ENDCHAR
STARTCHAR afii10023
ENCODING 168
SWIDTH 602 0
DWIDTH 11 0
BBX 8 16 2 0
BITMAP
24
24
00
FF
C0
C0
C0
C0
C0
FE
C0
C0
C0
C0
C0
FF
ENDCHAR
STARTCHAR copyright
ENCODING 169
SWIDTH 602 0
DWIDTH 11 0
BBX 9 13 1 0
BITMAP
1C00
6300
4100
9C80
A080
A080
A080
A080
A080
9C80
4100
6300
1C00
ENDCHAR
STARTCHAR afii10053
ENCODING 170
SWIDTH 602 0
DWIDTH 11 0
BBX 9 13 1 0
BITMAP
1F00
3180
6000
6000
C000
C000
FE00
C000
C000
6000
6000
3180
1F00
ENDCHAR
STARTCHAR guillemotleft
ENCODING 171
SWIDTH 602 0
DWIDTH 11 0
BBX 9 8 1 1
BITMAP
1980
3300
6600
CC00
CC00
6600
3300
1980
ENDCHAR
STARTCHAR logicalnot
ENCODING 172
SWIDTH 602 0
DWIDTH 11 0
BBX 9 4 1 3
BITMAP
FF80
0080
0080
0080
ENDCHAR
STARTCHAR hyphen
ENCODING 173
SWIDTH 602 0
DWIDTH 11 0
BBX 5 1 3 5
BITMAP
F8
ENDCHAR
STARTCHAR registered
ENCODING 174
SWIDTH 602 0
DWIDTH 11 0
BBX 8 8 2 5
BITMAP
3C
42
B9
A5
B9
A5
42
3C
ENDCHAR
STARTCHAR afii10056
ENCODING 175
SWIDTH 602 0
DWIDTH 11 0
BBX 8 16 2 0
BITMAP
24
24
00
FF
18
18
18
18
18
18
18
18
18
18
18
FF
ENDCHAR
STARTCHAR degree
ENCODING 176
SWIDTH 602 0
DWIDTH 11 0
BBX 5 5 3 9
BITMAP
70
88
88
88
70
ENDCHAR
STARTCHAR plusminus
ENCODING 177
SWIDTH 602 0
DWIDTH 11 0
BBX 9 8 1 2
BITMAP
0800
0800
0800
FF80
0800
0800
0000
FF80
ENDCHAR
STARTCHAR afii10055
ENCODING 178
SWIDTH 602 0
DWIDTH 11 0
BBX 8 13 2 0
BITMAP
FF
18
18
18
18
18
18
18
18
18
18
18
FF
ENDCHAR
STARTCHAR afii10103
ENCODING 179
SWIDTH 602 0
DWIDTH 11 0
BBX 5 14 2 0
BITMAP
18
18
00
00
F8
18
18
18
18
18
18
18
18
18
ENDCHAR
STARTCHAR afii10098
ENCODING 180
SWIDTH 602 0
DWIDTH 11 0
BBX 7 12 3 0
BITMAP
06
06
FE
C0
C0
C0
C0
C0
C0
C0
C0
C0
ENDCHAR
STARTCHAR mu
ENCODING 181
SWIDTH 602 0
DWIDTH 11 0
BBX 8 13 2 -3
BITMAP
C3
C3
C3
C3
C3
C3
C3
C3
E7
FB
C0
C0
C0
ENDCHAR
STARTCHAR paragraph
ENCODING 182
SWIDTH 602 0
DWIDTH 11 0
BBX 8 15 1 -2
BITMAP
7F
F9
F9
F9
79
39
09
09
09
09
09
09
09
09
09
ENDCHAR
STARTCHAR periodcentered
ENCODING 183
SWIDTH 602 0
DWIDTH 11 0
BBX 3 3 4 4
BITMAP
E0
E0
E0
ENDCHAR
STARTCHAR afii10071
ENCODING 184
SWIDTH 602 0
DWIDTH 11 0
BBX 9 13 1 0
BITMAP
1400
1400
0000
3E00
6300
C180
C180
FF80
C000
C000
E000
7180
3F00
ENDCHAR
STARTCHAR afii61352
ENCODING 185
SWIDTH 602 0
DWIDTH 11 0
BBX 10 13 1 0
BITMAP
8400
C400
C400
E400
E400
A400
B480
9540
9D40
9D40
8C80
8C00
85C0
ENDCHAR
STARTCHAR afii10101
ENCODING 186
SWIDTH 602 0
DWIDTH 11 0
BBX 9 10 1 0
BITMAP
1F00
7180
6000
C000
FE00
C000
C000
6000
7180
1F00
ENDCHAR
STARTCHAR guillemotright
ENCODING 187
SWIDTH 602 0
DWIDTH 11 0
BBX 9 8 1 1
BITMAP
CC00
6600
3300
1980
1980
3300
6600
CC00
ENDCHAR
STARTCHAR afii10105
ENCODING 188
SWIDTH 602 0
DWIDTH 11 0
BBX 7 17 1 -3
BITMAP
06
06
00
00
3E
06
06
06
06
06
06
06
06
06
06
0C
F8
ENDCHAR
STARTCHAR afii10054
ENCODING 189
SWIDTH 602 0
DWIDTH 11 0
BBX 8 13 2 0
BITMAP
3E
63
C0
C0
E0
78
1E
07
03
03
03
C6
7C
ENDCHAR
STARTCHAR afii10102
ENCODING 190
SWIDTH 602 0
DWIDTH 11 0
BBX 7 10 2 0
BITMAP
7C
C6
C0
E0
78
3C
0E
06
C6
7C
ENDCHAR
STARTCHAR afii10104
ENCODING 191
SWIDTH 602 0
DWIDTH 11 0
BBX 6 13 1 0
BITMAP
24
24
00
FC
0C
0C
0C
0C
0C
0C
0C
0C
0C
ENDCHAR
STARTCHAR afii10017
ENCODING 192
SWIDTH 602 0
DWIDTH 11 0
BBX 10 13 1 0
BITMAP
0C00
0C00
1E00
1600
1300
3300
2300
2180
7F80
4180
C0C0
C0C0
C0C0
ENDCHAR
STARTCHAR afii10018
ENCODING 193
SWIDTH 602 0
DWIDTH 11 0
BBX 8 13 2 0
BITMAP
FF
C0
C0
C0
C0
F8
C6
C3
C3
C3
C3
C7
FE
ENDCHAR
STARTCHAR afii10019
ENCODING 194
SWIDTH 602 0
DWIDTH 11 0
BBX 8 13 2 0
BITMAP
FE
C7
C3
C3
C3
C6
FC
C6
C3
C3
C3
C7
FE
ENDCHAR
STARTCHAR afii10020
ENCODING 195
SWIDTH 602 0
DWIDTH 11 0
BBX 8 13 2 0
BITMAP
FF
C0
C0
C0
C0
C0
C0
C0
C0
C0
C0
C0
C0
ENDCHAR
STARTCHAR afii10021
ENCODING 196
SWIDTH 602 0
DWIDTH 11 0
BBX 9 16 1 -3
BITMAP
3F00
3300
3300
3300
3300
3300
3300
3300
3300
6300
6300
6300
FF80
C180
C180
C180
ENDCHAR
STARTCHAR afii10022
ENCODING 197
SWIDTH 602 0
DWIDTH 11 0
BBX 8 13 2 0
BITMAP
FF
C0
C0
C0
C0
C0
FE
C0
C0
C0
C0
C0
FF
ENDCHAR
STARTCHAR afii10024
ENCODING 198
SWIDTH 602 0
DWIDTH 11 0
BBX 9 13 1 0
BITMAP
C980
C980
6B00
6B00
3E00
1C00
1C00
1C00
3E00
6B00
6B00
C980
C980
ENDCHAR
STARTCHAR afii10025
ENCODING 199
SWIDTH 602 0
DWIDTH 11 0
BBX 8 13 2 0
BITMAP
7E
C7
03
03
03
06
3C
06
03
03
03
C7
7E
ENDCHAR
STARTCHAR afii10026
ENCODING 200
SWIDTH 602 0
DWIDTH 11 0
BBX 9 13 1 0
BITMAP
8180
8380
8380
8680
8C80
8C80
9880
B080
B080
E080
E080
C080
8080
ENDCHAR
STARTCHAR afii10027
ENCODING 201
SWIDTH 602 0
DWIDTH 11 0
BBX 9 16 1 0
BITMAP
3600
1C00
0000
8180
8380
8380
8680
8C80
8C80
9880
B080
B080
E080
E080
C080
8080
ENDCHAR
STARTCHAR afii10028
ENCODING 202
SWIDTH 602 0
DWIDTH 11 0
BBX 10 13 1 0
BITMAP
C180
C300
C600
CC00
D800
F000
F000
D800
CC00
C600
C300
C180
C0C0
ENDCHAR
STARTCHAR afii10029
ENCODING 203
SWIDTH 602 0
DWIDTH 11 0
BBX 9 13 1 0
BITMAP
3F80
3180
3180
3180
3180
3180
3180
3180
3180
6180
6180
6180
C180
ENDCHAR
STARTCHAR afii10030
ENCODING 204
SWIDTH 602 0
DWIDTH 11 0
BBX 10 13 1 0
BITMAP
E0C0
E1C0
E1C0
E1C0
B2C0
B2C0
B2C0
B2C0
9CC0
9CC0
88C0
88C0
80C0
ENDCHAR
STARTCHAR afii10031
ENCODING 205
SWIDTH 602 0
DWIDTH 11 0
BBX 9 13 1 0
BITMAP
C180
C180
C180
C180
C180
C180
FF80
C180
C180
C180
C180
C180
C180
ENDCHAR
STARTCHAR afii10032
ENCODING 206
SWIDTH 602 0
DWIDTH 11 0
BBX 10 13 1 0
BITMAP
1E00
3300
6180
6180
C0C0
C0C0
C0C0
C0C0
C0C0
6180
6180
3300
1E00
ENDCHAR
STARTCHAR afii10033
ENCODING 207
SWIDTH 602 0
DWIDTH 11 0
BBX 9 13 1 0
BITMAP
FF80
C180
C180
C180
C180
C180
C180
C180
C180
C180
C180
C180
C180
ENDCHAR
STARTCHAR afii10034
ENCODING 208
SWIDTH 602 0
DWIDTH 11 0
BBX 8 13 2 0
BITMAP
FE
C7
C3
C3
C3
C3
C6
F8
C0
C0
C0
C0
C0
ENDCHAR
STARTCHAR afii10035
ENCODING 209
SWIDTH 602 0
DWIDTH 11 0
BBX 9 13 1 0
BITMAP
1F00
3180
6000
6000
C000
C000
C000
C000
C000
6000
6000
3180
1F00
ENDCHAR
STARTCHAR afii10036
ENCODING 210
SWIDTH 602 0
DWIDTH 11 0
BBX 10 13 1 0
BITMAP
FFC0
0C00
0C00
0C00
0C00
0C00
0C00
0C00
0C00
0C00
0C00
0C00
0C00
ENDCHAR
STARTCHAR afii10037
ENCODING 211
SWIDTH 602 0
DWIDTH 11 0
BBX 10 13 1 0
BITMAP
C0C0
C0C0
6080
6180
3100
3300
1A00
1E00
0C00
0C00
1800
3000
6000
ENDCHAR
STARTCHAR afii10038
ENCODING 212
SWIDTH 602 0
DWIDTH 11 0
BBX 10 13 1 0
BITMAP
0C00
3F00
6D80
CCC0
CCC0
CCC0
CCC0
CCC0
CCC0
6D80
3F00
0C00
0C00
ENDCHAR
STARTCHAR afii10039
ENCODING 213
SWIDTH 602 0
DWIDTH 11 0
BBX 9 13 1 0
BITMAP
C180
C180
6180
6300
3200
1C00
1C00
1C00
2600
6300
C300
C180
C180
ENDCHAR
STARTCHAR afii10040
ENCODING 214
SWIDTH 602 0
DWIDTH 11 0
BBX 9 16 1 -3
BITMAP
C300
C300
C300
C300
C300
C300
C300
C300
C300
C300
C300
C300
FF80
0180
0180
0180
ENDCHAR
STARTCHAR afii10041
ENCODING 215
SWIDTH 602 0
DWIDTH 11 0
BBX 9 13 1 0
BITMAP
C180
C180
C180
C180
C180
C180
E380
7D80
0180
0180
0180
0180
0180
ENDCHAR
STARTCHAR afii10042
ENCODING 216
SWIDTH 602 0
DWIDTH 11 0
BBX 9 13 1 0
BITMAP
C980
C980
C980
C980
C980
C980
C980
C980
C980
C980
C980
C980
FF80
ENDCHAR
STARTCHAR afii10043
ENCODING 217
SWIDTH 602 0
DWIDTH 11 0
BBX 10 16 1 -3
BITMAP
C980
C980
C980
C980
C980
C980
C980
C980
C980
C980
C980
C980
FFC0
00C0
00C0
00C0
ENDCHAR
STARTCHAR afii10044
ENCODING 218
SWIDTH 602 0
DWIDTH 11 0
BBX 10 13 0 0
BITMAP
F000
3000
3000
3000
3000
3E00
3180
30C0
30C0
30C0
30C0
31C0
3F80
ENDCHAR
STARTCHAR afii10045
ENCODING 219
SWIDTH 602 0
DWIDTH 11 0
BBX 10 13 1 0
BITMAP
C0C0
C0C0
C0C0
C0C0
C0C0
F0C0
CCC0
C6C0
C6C0
C6C0
C6C0
CEC0
FCC0
ENDCHAR
STARTCHAR afii10046
ENCODING 220
SWIDTH 602 0
DWIDTH 11 0
BBX 8 13 2 0
BITMAP
C0
C0
C0
C0
C0
F8
C6
C3
C3
C3
C3
C7
FE
ENDCHAR
STARTCHAR afii10047
ENCODING 221
SWIDTH 602 0
DWIDTH 11 0
BBX 9 13 1 0
BITMAP
7C00
C600
0300
0300
0180
0180
3F80
0180
0180
0300
0300
C600
7C00
ENDCHAR
STARTCHAR afii10048
ENCODING 222
SWIDTH 602 0
DWIDTH 11 0
BBX 10 13 1 0
BITMAP
C700
CD80
C880
D8C0
D8C0
D8C0
F8C0
D8C0
D8C0
D8C0
C880
CD80
C700
ENDCHAR
STARTCHAR afii10049
ENCODING 223
SWIDTH 602 0
DWIDTH 11 0
BBX 8 13 2 0
BITMAP
3F
73
63
63
63
33
0F
1B
33
33
63
C3
C3
ENDCHAR
STARTCHAR afii10065
ENCODING 224
SWIDTH 602 0
DWIDTH 11 0
BBX 9 10 1 0
BITMAP
3E00
6700
0300
0300
3F00
6300
C300
C300
E700
7980
ENDCHAR
STARTCHAR afii10066
ENCODING 225
SWIDTH 602 0
DWIDTH 11 0
BBX 9 14 1 0
BITMAP
1F80
7000
6000
C000
DC00
E700
C300
C180
C180
C180
C180
6300
7700
1C00
ENDCHAR
STARTCHAR afii10067
ENCODING 226
SWIDTH 602 0
DWIDTH 11 0
BBX 8 10 2 0
BITMAP
FE
C7
C3
C6
FC
C6
C3
C3
C7
FE
ENDCHAR
STARTCHAR afii10068
ENCODING 227
SWIDTH 602 0
DWIDTH 11 0
BBX 7 10 3 0
BITMAP
FE
C0
C0
C0
C0
C0
C0
C0
C0
C0
ENDCHAR
STARTCHAR afii10069
ENCODING 228
SWIDTH 602 0
DWIDTH 11 0
BBX 9 12 1 -2
BITMAP
3F00
3300
3300
3300
3300
3300
6300
6300
6300
FF80
C180
C180
ENDCHAR
STARTCHAR afii10070
ENCODING 229
SWIDTH 602 0
DWIDTH 11 0
BBX 9 10 1 0
BITMAP
3E00
6300
C180
C180
FF80
C000
C000
E000
7180
3F00
ENDCHAR
STARTCHAR afii10072
ENCODING 230
SWIDTH 602 0
DWIDTH 11 0
BBX 9 10 1 0
BITMAP
C980
C980
6B00
3E00
1C00
1C00
3E00
6B00
C980
C980
ENDCHAR
STARTCHAR afii10073
ENCODING 231
SWIDTH 602 0
DWIDTH 11 0
BBX 8 10 2 0
BITMAP
7E
C7
03
06
3C
06
03
03
C7
7E
ENDCHAR
STARTCHAR afii10074
ENCODING 232
SWIDTH 602 0
DWIDTH 11 0
BBX 8 10 2 0
BITMAP
83
87
8D
8D
99
99
B1
B1
E1
C1
ENDCHAR
STARTCHAR afii10075
ENCODING 233
SWIDTH 602 0
DWIDTH 11 0
BBX 8 13 2 0
BITMAP
6C
38
00
83
87
8D
8D
99
99
B1
B1
E1
C1
ENDCHAR
STARTCHAR afii10076
ENCODING 234
SWIDTH 602 0
DWIDTH 11 0
BBX 8 10 2 0
BITMAP
C3
C6
CC
D8
F0
F0
D8
CC
C6
C3
ENDCHAR
STARTCHAR afii10077
ENCODING 235
SWIDTH 602 0
DWIDTH 11 0
BBX 9 10 1 0
BITMAP
3F80
3180
3180
3180
3180
3180
6180
6180
6180
C180
ENDCHAR
STARTCHAR afii10078
ENCODING 236
SWIDTH 602 0
DWIDTH 11 0
BBX 10 10 1 0
BITMAP
E1C0
E1C0
B2C0
B2C0
B2C0
9CC0
9CC0
88C0
88C0
80C0
ENDCHAR
STARTCHAR afii10079
ENCODING 237
SWIDTH 602 0
DWIDTH 11 0
BBX 8 10 2 0
BITMAP
C3
C3
C3
C3
FF
C3
C3
C3
C3
C3
ENDCHAR
STARTCHAR afii10080
ENCODING 238
SWIDTH 602 0
DWIDTH 11 0
BBX 9 10 1 0
BITMAP
1C00
7700
6300
C180
C180
C180
C180
6300
7700
1C00
ENDCHAR
STARTCHAR afii10081
ENCODING 239
SWIDTH 602 0
DWIDTH 11 0
BBX 8 10 2 0
BITMAP
FF
C3
C3
C3
C3
C3
C3
C3
C3
C3
ENDCHAR
STARTCHAR afii10082
ENCODING 240
SWIDTH 602 0
DWIDTH 11 0
BBX 9 13 1 -3
BITMAP
DC00
E700
C300
C180
C180
C180
C180
C300
E700
DC00
C000
C000
C000
ENDCHAR
STARTCHAR afii10083
ENCODING 241
SWIDTH 602 0
DWIDTH 11 0
BBX 9 10 1 0
BITMAP
1F00
7180
6000
C000
C000
C000
C000
6000
7180
1F00
ENDCHAR
STARTCHAR afii10084
ENCODING 242
SWIDTH 602 0
DWIDTH 11 0
BBX 8 10 2 0
BITMAP
FF
18
18
18
18
18
18
18
18
18
ENDCHAR
STARTCHAR afii10085
ENCODING 243
SWIDTH 602 0
DWIDTH 11 0
BBX 8 13 2 -3
BITMAP
C3
C3
C3
62
66
66
34
3C
18
18
10
30
30
ENDCHAR
STARTCHAR afii10086
ENCODING 244
SWIDTH 602 0
DWIDTH 11 0
BBX 10 17 1 -3
BITMAP
0C00
0C00
0C00
0C00
3F00
6D80
CCC0
CCC0
CCC0
CCC0
CCC0
CCC0
6D80
3F00
0C00
0C00
0C00
ENDCHAR
STARTCHAR afii10087
ENCODING 245
SWIDTH 602 0
DWIDTH 11 0
BBX 8 10 2 0
BITMAP
C3
C3
66
34
38
1C
2C
66
C3
C3
ENDCHAR
STARTCHAR afii10088
ENCODING 246
SWIDTH 602 0
DWIDTH 11 0
BBX 9 12 1 -2
BITMAP
C300
C300
C300
C300
C300
C300
C300
C300
C300
FF80
0180
0180
ENDCHAR
STARTCHAR afii10089
ENCODING 247
SWIDTH 602 0
DWIDTH 11 0
BBX 8 10 1 0
BITMAP
C3
C3
C3
C3
C3
E7
7B
03
03
03
ENDCHAR
STARTCHAR afii10090
ENCODING 248
SWIDTH 602 0
DWIDTH 11 0
BBX 9 10 1 0
BITMAP
C980
C980
C980
C980
C980
C980
C980
C980
C980
FF80
ENDCHAR
STARTCHAR afii10091
ENCODING 249
SWIDTH 602 0
DWIDTH 11 0
BBX 10 12 1 -2
BITMAP
C980
C980
C980
C980
C980
C980
C980
C980
C980
FFC0
00C0
00C0
ENDCHAR
STARTCHAR afii10092
ENCODING 250
SWIDTH 602 0
DWIDTH 11 0
BBX 10 10 0 0
BITMAP
F000
3000
3000
3000
3F00
3180
30C0
30C0
31C0
3F80
ENDCHAR
STARTCHAR afii10093
ENCODING 251
SWIDTH 602 0
DWIDTH 11 0
BBX 10 10 1 0
BITMAP
C0C0
C0C0
C0C0
C0C0
F8C0
CCC0
C6C0
C6C0
CEC0
FCC0
ENDCHAR
STARTCHAR afii10094
ENCODING 252
SWIDTH 602 0
DWIDTH 11 0
BBX 8 10 2 0
BITMAP
C0
C0
C0
C0
FC
C6
C3
C3
C7
FE
ENDCHAR
STARTCHAR afii10095
ENCODING 253
SWIDTH 602 0
DWIDTH 11 0
BBX 9 10 1 0
BITMAP
7C00
C700
0300
0180
3F80
0180
0180
0300
C700
7C00
ENDCHAR
STARTCHAR afii10096
ENCODING 254
SWIDTH 602 0
DWIDTH 11 0
BBX 10 10 1 0
BITMAP
C700
CD80
C880
D8C0
F8C0
D8C0
D8C0
C880
CD80
C700
ENDCHAR
STARTCHAR afii10097
ENCODING 255
SWIDTH 602 0
DWIDTH 11 0
BBX 9 10 1 0
BITMAP
3F80
7180
6180
6180
3180
1F80
3180
6180
C180
C180
ENDCHAR
STARTCHAR fl
ENCODING -1
SWIDTH 602 0
DWIDTH 11 0
BBX 9 14 1 0
BITMAP
1F80
3180
6180
6180
FD80
6180
6180
6180
6180
6180
6180
6180
6180
6180
ENDCHAR
STARTCHAR Zcaron
ENCODING -1
SWIDTH 602 0
DWIDTH 11 0
BBX 9 16 1 0
BITMAP
1600
0C00
0000
FF80
FF80
0180
0300
0600
0C00
1800
3000
6000
C000
C000
FF80
FF80
ENDCHAR
STARTCHAR oe
ENCODING -1
SWIDTH 602 0
DWIDTH 11 0
BBX 11 10 0 0
BITMAP
3DC0
6660
6660
C660
C7E0
C600
C600
6600
6760
39C0
ENDCHAR
STARTCHAR Ydieresis
ENCODING -1
SWIDTH 602 0
DWIDTH 11 0
BBX 10 16 1 0
BITMAP
1200
1200
0000
C0C0
C0C0
6180
3100
3300
1A00
0C00
0C00
0C00
0C00
0C00
0C00
0C00
ENDCHAR
STARTCHAR dotlessi
ENCODING -1
SWIDTH 602 0
DWIDTH 11 0
BBX 5 10 2 0
BITMAP
F8
18
18
18
18
18
18
18
18
18
ENDCHAR
STARTCHAR lslash
ENCODING -1
SWIDTH 602 0
DWIDTH 11 0
BBX 8 14 2 0
BITMAP
F8
18
18
18
18
1B
1C
38
D8
18
18
18
18
18
ENDCHAR
STARTCHAR Lslash
ENCODING -1
SWIDTH 602 0
DWIDTH 11 0
BBX 10 13 0 0
BITMAP
3000
3000
3000
3000
3000
3C00
F000
3000
3000
3000
3000
3000
3FC0
ENDCHAR
STARTCHAR fi
ENCODING -1
SWIDTH 602 0
DWIDTH 11 0
BBX 9 14 1 0
BITMAP
1F80
3380
6000
6000
FF80
6180
6180
6180
6180
6180
6180
6180
6180
6180
ENDCHAR
STARTCHAR OE
ENCODING -1
SWIDTH 602 0
DWIDTH 11 0
BBX 10 13 1 0
BITMAP
1FC0
3600
6600
6600
C600
C600
C7C0
C600
C600
6600
6600
3600
1FC0
ENDCHAR
STARTCHAR caron
ENCODING -1
SWIDTH 602 0
DWIDTH 11 0
BBX 4 2 4 11
BITMAP
B0
60
ENDCHAR
STARTCHAR ogonek
ENCODING -1
SWIDTH 602 0
DWIDTH 11 0
BBX 4 3 3 -3
BITMAP
60
C0
70
ENDCHAR
STARTCHAR hungarumlaut
ENCODING -1
SWIDTH 602 0
DWIDTH 11 0
BBX 5 2 3 11
BITMAP
D8
90
ENDCHAR
STARTCHAR dotaccent
ENCODING -1
SWIDTH 602 0
DWIDTH 11 0
BBX 2 2 5 11
BITMAP
C0
C0
ENDCHAR
STARTCHAR breve
ENCODING -1
SWIDTH 602 0
DWIDTH 11 0
BBX 5 2 3 11
BITMAP
88
70
ENDCHAR
STARTCHAR tilde
ENCODING -1
SWIDTH 602 0
DWIDTH 11 0
BBX 5 2 3 11
BITMAP
68
B0
ENDCHAR
STARTCHAR circumflex
ENCODING -1
SWIDTH 602 0
DWIDTH 11 0
BBX 4 2 4 11
BITMAP
60
B0
ENDCHAR
STARTCHAR scaron
ENCODING -1
SWIDTH 602 0
DWIDTH 11 0
BBX 7 13 2 0
BITMAP
2C
18
00
7C
C6
C0
E0
78
3C
0E
06
C6
7C
ENDCHAR
STARTCHAR ring
ENCODING -1
SWIDTH 602 0
DWIDTH 11 0
BBX 4 3 4 10
BITMAP
60
90
60
ENDCHAR
STARTCHAR florin
ENCODING -1
SWIDTH 602 0
DWIDTH 11 0
BBX 9 15 2 -2
BITMAP
0F00
1980
1800
3000
3000
3000
FE00
6000
6000
6000
6000
C000
C000
C000
C000
ENDCHAR
STARTCHAR fraction
ENCODING -1
SWIDTH 602 0
DWIDTH 11 0
BBX 11 13 0 0
BITMAP
0020
0060
00C0
0180
0300
0600
0600
0C00
1800
3000
6000
C000
8000
ENDCHAR
STARTCHAR Scaron
ENCODING -1
SWIDTH 602 0
DWIDTH 11 0
BBX 8 16 2 0
BITMAP
16
0C
00
3E
63
C0
C0
E0
78
1E
07
03
03
03
C6
7C
ENDCHAR
STARTCHAR zcaron
ENCODING -1
SWIDTH 602 0
DWIDTH 11 0
BBX 8 13 2 0
BITMAP
2C
18
00
FF
03
07
0E
1C
38
70
E0
C0
FF
ENDCHAR
ENDFONT
